<?xml version="1.0" standalone="no"?>
<!DOCTYPE svg PUBLIC "-//W3C//DTD SVG 20010904//EN"
 "http://www.w3.org/TR/2001/REC-SVG-20010904/DTD/svg10.dtd">
<svg version="1.0" xmlns="http://www.w3.org/2000/svg"
 width="600.000000pt" height="526.000000pt" viewBox="0 0 600.000000 526.000000"
 preserveAspectRatio="xMidYMid meet">

<g transform="translate(0.000000,526.000000) scale(0.100000,-0.100000)"
fill="none" stroke="none">
  <path d="M0 2630 l0 -2630 3000 0 3000 0 0 2630 0 2630 -3000 0 -3000 0 0 -2630z"/>
  <path fill="#FFD700" d="M2965 4396 c0 -21 -1 -22 -95 -64 -36 -16 -105 -58 -155 -94 -86 -62
-94 -66 -175 -77 -107 -16 -290 -76 -398 -130 -414 -208 -739 -613 -857 -1066
-44 -169 -58 -285 -58 -475 0 -206 18 -340 69 -507 91 -301 250 -558 473 -765
103 -96 192 -156 323 -218 171 -81 236 -95 423 -95 189 1 240 12 391 85 267
129 454 346 556 643 31 89 32 98 33 262 0 94 -4 202 -8 240 -8 65 -7 73 15
105 13 19 39 44 59 54 106 57 155 -64 153 -379 -1 -182 -12 -253 -60 -394
-100 -289 -323 -552 -601 -708 -183 -102 -451 -150 -682 -124 -647 76 -1229
717 -1341 1479 -24 168 -27 465 -5 619 96 673 538 1255 1135 1496 240 96 437
136 655 134 140 -2 150 -3 150 -21z"/>
  <path fill="#FFD700" d="M3653 4315 c179 -32 407 -130 576 -250 229
-161 473 -454 591 -710 142 -306 197 -580 187 -919 -12 -388 -124 -738 -339
-1058 -329 -491 -794 -744 -1440 -783 -113 -7 -178 4 -178 31 0 7 28 28 63 45
34 17 101 60 148 94 78 57 92 63 150 70 176 18 411 97 567 189 338 200 592
518 718 901 74 227 89 325 89 585 -1 194 -4 239 -23 327 -80 366 -240 653
-510 915 -113 109 -211 177 -357 248 -118 57 -163 73 -276 96 -263 53 -594
-56 -817 -269 -72 -69 -169 -199 -219 -294 -65 -124 -64 -123 -142 -123 -90 0
-115 17 -109 75 12 99 165 350 292 479 169 170 431 311 646 346 41 6 82 13 90
15 44 8 225 3 293 -10z"/>
  <path fill="#FFD700" d="M3372 3940 c112 -31 339 -420 290 -497 -17 -27 -122
-44 -166 -27 -9 4 -37 47 -62 96 -53 106 -103 181 -173 261 -30 34 -51 68 -51
81 0 34 29 65 75 81 49 17 43 17 87 5z"/>
  <path fill="#FFD700" d="M2619 3220 c177 -51 338 -150 497 -304
101 -99 104 -103 104 -146 0 -76 -62 -149 -113 -136 -14 3 -44 27 -68 53 -138
151 -332 277 -494 324 -72 20 -272 18 -355 -5 -154 -42 -300 -161 -364 -297
-39 -81 -61 -197 -51 -264 26 -170 129 -327 270 -409 80 -47 95 -73 95 -160 0
-59 -2 -67 -26 -82 -24 -16 -29 -16 -77 -1 -100 32 -247 144 -330 252 -55 72
-111 187 -133 273 -19 77 -22 235 -5 317 62 295 302 529 616 599 102 23 333
15 434 -14z"/>
  <path fill="#FFD700" d="M3690 3224 c65 -64 17 -365 -92 -580 -82 -162 -254 -378 -418 -521
-139 -123 -349 -254 -452 -284 -25 -7 -34 -4 -54 16 -20 20 -24 34 -24 82 0
76 23 114 90 147 195 98 458 341 592 547 62 96 141 271 162 363 7 28 6 29 -27
23 -19 -3 -65 -17 -102 -32 -75 -30 -88 -28 -146 26 -60 56 -47 116 36 161 98
53 207 78 332 75 69 -2 86 -5 103 -23z"/>
  <path fill="#FFD700" d="M4022 3170 c198 -101 339 -255 404 -445
25 -72 28 -94 28 -215 1 -156 -14 -221 -75 -343 -75 -151 -212 -289 -353 -357
-75 -35 -104 -37 -134 -10 -18 17 -22 32 -22 84 0 76 16 100 93 144 68 38 153
123 196 197 99 165 104 336 16 504 -50 94 -104 152 -198 215 -46 30 -89 61
-96 70 -17 20 -11 147 8 170 20 24 67 19 133 -14z"/>
  <path fill="#FFD700" d="M2497 2855 c12 -8 42 -52
66 -97 66 -120 141 -223 219 -299 48 -47 68 -74 68 -92 0 -32 -53 -84 -101
-99 -34 -10 -42 -8 -82 15 -112 66 -289 312 -333 463 -14 51 -14 57 1 80 9 14
26 29 38 34 35 14 101 11 124 -5z"/>
  <path fill="#FFD700" d="M2447 2294 c66 -32 68 -40 68 -314 0 -243 0
-246 28 -329 59 -174 158 -351 241 -430 45 -44 46 -71 2 -109 -45 -39 -102
-49 -151 -26 -50 24 -144 147 -209 274 -87 171 -122 303 -132 499 -11 206 28
420 80 441 30 12 34 12 73 -6z"/>
  <path fill="#FFD700" d="M3340 1978 c13 -22 20 -49 19 -83 -1 -71 -11
-98 -41 -115 -24 -13 -32 -13 -71 2 -60 22 -127 65 -127 82 0 19 158 146 182
146 10 0 27 -14 38 -32z"/>
</g>
</svg> 